{"title":"The Hobbit An Unexpected Journey (2012) 1080p BrRip x264 - (ULTR","uid":8258285,"size":3229838203,"categoryP":"video","categoryS":"hd___movies","magnet":"?xt=urn:btih:13404590b0f8615af7ed25996dd7f679ad79c7e5&amp;dn=The+Hobbit+An+Unexpected+Journey+%282012%29+1080p+BrRip+x264+-+%28ULTR&amp;tr=udp%3A%2F%2Ftracker.openbittorrent.com%3A80&amp;tr=udp%3A%2F%2Fopen.demonii.com%3A1337&amp;tr=udp%3A%2F%2Ftracker.coppersurfer.tk%3A6969&amp;tr=udp%3A%2F%2Fexodus.desync.com%3A6969","seeders":1,"leechers":0,"uploader":"monkeyboyjenkins","files":-1,"time":1363309316,"description":"Brought to you by\t(ULTRAHD) \n\nOne man on a mission to make the best quality rips.\n\nHello my fellow p2p's.\n\nEnjoy High Quality Rips like you deserve.\n\nMany more to come...\n\n\nBluray Source - The.Hobbit.An.Unexpected.Journey.2012.1080p.BluRay.x264-SPARKS [PublicHD]\n\nThe Hobbit An Unexpected Journey (2012) 1080p BrRip x264 - (ULTRAHD).avi\n\nFormat                                   : AVI\nFormat/Info                              : Audio Video Interleave\nFormat profile                           : OpenDML\nFile size                                : 3.01 GiB\nDuration                                 : 2h 49mn\nOverall bit rate                         : 2 539 Kbps\nWriting application                      : VirtualDubMod 1.5.10.2 (build 2542/release)\nWriting library                          : VirtualDubMod build 2542/release\n\nVideo\nID                                       : 0\nFormat                                   : AVC\nFormat/Info                              : Advanced Video Codec\nFormat profile                           : &lt;a class=&quot;__cf_email__&quot; href=&quot;/cdn-cgi/l/email-protection&quot; data-cfemail=&quot;3971505e5179750c1709&quot;&gt;[email&amp;#160;protected]&lt;/a&gt;&lt;script cf-hash='f9e31' type=&quot;text/javascript&quot;&gt;\n/* &lt;![CDATA[ */!function(){try{var t=&quot;currentScript&quot;in document?document.currentScript:function(){for(var t=document.getElementsByTagName(&quot;script&quot;),e=t.length;e--;)if(t[e].getAttribute(&quot;cf-hash&quot;))return t[e]}();if(t&amp;&amp;t.previousSibling){var e,r,n,i,c=t.previousSibling,a=c.getAttribute(&quot;data-cfemail&quot;);if(a){for(e=&quot;&quot;,r=parseInt(a.substr(0,2),16),n=2;a.length-n;n+=2)i=parseInt(a.substr(n,2),16)^r,e+=String.fromCharCode(i);e=document.createTextNode(e),c.parentNode.replaceChild(e,c)}}}catch(u){}}();/* ]]&gt; */&lt;/script&gt;\nFormat settings, CABAC                   : Yes\nFormat settings, ReFrames                : 16 frames\nCodec ID                                 : H264\nDuration                                 : 2h 49mn\nBit rate                                 : 1 889 Kbps\nWidth                                    : 1 920 pixels\nHeight                                   : 800 pixels\nDisplay aspect ratio                     : 2.40:1\nFrame rate                               : 23.976 fps\nColor space                              : YUV\nChroma subsampling                       : 4:2:0\nBit depth                                : 8 bits\nScan type                                : Progressive\nBits/(Pixel*Frame)                       : 0.051\nStream size                              : 2.24 GiB (74%)\nWriting library                          : x264 core 125 r2200bm 999b753\n\nAudio\nID                                       : 1\nFormat                                   : AC-3\nFormat/Info                              : Audio Coding 3\nMode extension                           : CM (complete main)\nFormat settings, Endianness              : Big\nCodec ID                                 : 2000\nDuration                                 : 2h 49mn\nBit rate mode                            : Constant\nBit rate                                 : 640 Kbps\nChannel(s)                               : 6 channels\nChannel positions                        : Front: L C R, Side: L R, LFE\nSampling rate                            : 48.0 KHz\nBit depth                                : 16 bits\nCompression mode                         : Lossy\nStream size                              : 776 MiB (25%)\nAlignment                                : Split accross interleaves\nInterleave, duration                     : 42 ms (1.00 video frame)\nInterleave, preload duration             : 500 ms\n\n\nQuality Snips\n &lt;a href=&quot;\nhttp://bayimg.com/aaKgFaaej&quot; rel=&quot;nofollow&quot; target=&quot;_NEW&quot;&gt;\nhttp://bayimg.com/aaKgFaaej&lt;/a&gt; &lt;a href=&quot;\nhttp://bayimg.com/aaKgGAaEJ&quot; rel=&quot;nofollow&quot; target=&quot;_NEW&quot;&gt;\nhttp://bayimg.com/aaKgGAaEJ&lt;/a&gt; &lt;a href=&quot;\nhttp://bayimg.com/AAkGhaAEj&quot; rel=&quot;nofollow&quot; target=&quot;_NEW&quot;&gt;\nhttp://bayimg.com/AAkGhaAEj&lt;/a&gt; &lt;a href=&quot;\nhttp://bayimg.com/AakgKaAej&quot; rel=&quot;nofollow&quot; target=&quot;_NEW&quot;&gt;\nhttp://bayimg.com/AakgKaAej&lt;/a&gt;\n\nPlease seed until the end of the Universe...\nOnly way to enjoy it is to seed Thx Peeps.","torrent":{"xt":"urn:btih:13404590b0f8615af7ed25996dd7f679ad79c7e5","amp;dn":"The+Hobbit+An+Unexpected+Journey+%282012%29+1080p+BrRip+x264+-+%28ULTR","amp;tr":["udp%3A%2F%2Ftracker.openbittorrent.com%3A80","udp%3A%2F%2Fopen.demonii.com%3A1337","udp%3A%2F%2Ftracker.coppersurfer.tk%3A6969","udp%3A%2F%2Fexodus.desync.com%3A6969"],"infoHash":"13404590b0f8615af7ed25996dd7f679ad79c7e5","infoHashBuffer":{"type":"Buffer","data":[19,64,69,144,176,248,97,90,247,237,37,153,109,215,246,121,173,121,199,229]},"announce":[],"urlList":[]}}